<?xml version="1.0" encoding="UTF-8"?>
<svg width="1214px" height="819px" viewBox="0 0 1214 819" version="1.1" xmlns="http://www.w3.org/2000/svg" xmlns:xlink="http://www.w3.org/1999/xlink">
    <!-- Generator: Sketch 47.1 (45422) - http://www.bohemiancoding.com/sketch -->
    <title>Group 2</title>
    <desc>Created with Sketch.</desc>
    <defs>
        <linearGradient x1="50%" y1="0%" x2="50%" y2="100%" id="linearGradient-1">
            <stop stop-color="#C8C8C8" offset="0%"></stop>
            <stop stop-color="#979797" offset="100%"></stop>
        </linearGradient>
        <path d="M187.635597,392.522534 C197.030896,394.051458 206.672624,394.846311 216.5,394.846311 C241.268017,394.846311 264.856808,389.797442 286.293323,380.672753 C284.109132,380.952487 282.578478,380.791121 281.880422,380.198361 C278.653892,377.458528 269.937022,371.371291 257.197044,359.950265 C252.484561,355.725658 244.195998,347.721413 232.331356,335.937531 C224.237822,349.210326 217.754378,359.207548 212.881023,365.929198 C208.414684,372.089465 199.999542,380.953911 187.635597,392.522534 Z M95.7651745,347.766344 C108.443443,339.605967 120.557627,329.964507 132.107725,318.841963 C144.176642,307.219806 157.377123,291.744822 171.709169,272.417009 C151.385276,250.684952 136.77215,233.798437 127.869791,221.757466 C109.051621,196.304771 101.388849,171.146452 100.845012,157.984408 C100.294351,144.65719 101.755925,130.610924 116.042283,111.418971 C125.566522,98.6243347 141.427867,86.0331751 163.62632,73.6454918 C169.405848,101.899396 176.249427,123.9041 184.157057,139.659605 C192.064688,155.415109 206.846172,177.288807 228.501509,205.280697 C245.3198,183.483676 257.569227,168.600506 265.249789,160.631188 C280.021563,145.304059 294.524631,134.931716 305.378047,127.405718 C324.413759,114.205938 342.798825,108.838706 360.533244,111.304022 C328.088548,66.9566724 275.657922,38.1536885 216.5,38.1536885 C118.002052,38.1536885 38.1536885,118.002052 38.1536885,216.5 C38.1536885,268.428026 60.3466513,315.172608 95.7651745,347.766344 Z M390.800926,178.553577 C374.400134,183.821679 354.977027,197.149834 332.531603,218.53804 C309.494809,240.489762 294.60629,257.730832 287.866045,270.261249 C302.303178,285.681156 317.191698,298.595652 332.531603,309.004736 C345.036556,317.490128 353.72511,322.586071 358.597263,324.292564 C381.344923,294.351871 394.846311,257.002645 394.846311,216.5 C394.846311,203.478095 393.450712,190.782151 390.800926,178.553577 Z M216.5,414.366803 C107.221182,414.366803 18.6331967,325.778818 18.6331967,216.5 C18.6331967,107.221182 107.221182,18.6331967 216.5,18.6331967 C325.778818,18.6331967 414.366803,107.221182 414.366803,216.5 C414.366803,325.778818 325.778818,414.366803 216.5,414.366803 Z" id="path-2"></path>
        <filter x="-1.3%" y="-1.3%" width="105.1%" height="105.1%" filterUnits="objectBoundingBox" id="filter-3">
            <feOffset dx="6" dy="6" in="SourceAlpha" result="shadowOffsetOuter1"></feOffset>
            <feGaussianBlur stdDeviation="2" in="shadowOffsetOuter1" result="shadowBlurOuter1"></feGaussianBlur>
            <feColorMatrix values="0 0 0 0 0   0 0 0 0 0   0 0 0 0 0  0 0 0 0.5 0" type="matrix" in="shadowBlurOuter1"></feColorMatrix>
        </filter>
    </defs>
    <g id="Page-1" stroke="none" stroke-width="1" fill="none" fill-rule="evenodd">
        <g id="Desktop-HD" transform="translate(-633.000000, -404.000000)">
            <g id="Group-2" transform="translate(631.000000, 405.000000)">
                <text id="DEMOcracy" font-family="EdoSZ, Edo SZ" font-size="250" font-weight="normal" fill="#000000">
                    <tspan x="1" y="693">DEMOcracy</tspan>
                </text>
                <text id="Demokratie_live" font-family="IsabelleLayne" font-size="90" font-weight="400" letter-spacing="55.8300018" fill="#000000">
                    <tspan x="0" y="812">Demokratie_liv</tspan>
                    <tspan x="1158.18003" y="812">e</tspan>
                </text>
                <g id="Group" transform="translate(396.000000, 0.000000)">
                    <path d="M90.1757172,392.34499 C125.728015,417.930291 169.354148,433 216.5,433 C336.069648,433 433,336.069648 433,216.5 C433,96.9303517 336.069648,0 216.5,0 C96.9303517,0 0,96.9303517 0,216.5 C0,260.785861 13.2968288,301.966082 36.1159037,336.266079 L15.6216024,409.848421 L90.1757172,392.34499 Z" id="Combined-Shape" stroke="#000000" fill="#000000"></path>
                    <circle id="Oval-34-Copy" stroke="url(#linearGradient-1)" fill="#4F81BD" cx="216.5" cy="216.5" r="178.346311"></circle>
                    <g id="Combined-Shape">
                        <use fill="black" fill-opacity="1" filter="url(#filter-3)" xlink:href="#path-2"></use>
                        <use fill="#FFFFFF" fill-rule="evenodd" xlink:href="#path-2"></use>
                    </g>
                </g>
            </g>
        </g>
    </g>
</svg>